<?xml version="1.0" standalone="no"?>
<!DOCTYPE svg PUBLIC "-//W3C//DTD SVG 20010904//EN"
 "http://www.w3.org/TR/2001/REC-SVG-20010904/DTD/svg10.dtd">
<svg version="1.0" xmlns="http://www.w3.org/2000/svg"
 width="512.000000pt" height="512.000000pt" viewBox="0 0 512.000000 512.000000"
 preserveAspectRatio="xMidYMid meet">

<g transform="translate(0.000000,512.000000) scale(0.100000,-0.100000)"
fill="#000000" stroke="none">
<path d="M1630 4789 c-385 -44 -734 -203 -976 -444 -210 -209 -317 -434 -331
-700 -13 -250 68 -481 245 -698 l67 -82 5 -483 5 -484 259 296 c162 186 267
298 282 302 28 7 33 6 164 -30 426 -115 883 -76 1280 110 286 135 536 379 646
633 63 146 77 217 77 391 0 127 -4 169 -21 233 -124 454 -552 813 -1107 927
-188 38 -415 49 -595 29z m-356 -961 c86 -26 166 -136 166 -228 0 -92 -80
-202 -166 -228 -94 -28 -169 -8 -239 63 -102 101 -102 229 0 330 70 71 145 90
239 63z m640 0 c55 -16 138 -99 154 -154 28 -94 8 -169 -63 -239 -51 -52 -102
-75 -165 -75 -124 0 -240 116 -240 240 0 63 23 114 75 165 70 71 145 90 239
63z m640 0 c86 -26 166 -136 166 -228 0 -124 -116 -240 -240 -240 -63 0 -114
23 -165 75 -102 101 -102 229 0 330 70 71 145 90 239 63z"/>
<path d="M1145 3655 c-50 -49 -15 -135 55 -135 41 0 80 39 80 80 0 41 -39 80
-80 80 -19 0 -40 -9 -55 -25z"/>
<path d="M1785 3655 c-50 -49 -15 -135 55 -135 41 0 80 39 80 80 0 41 -39 80
-80 80 -19 0 -40 -9 -55 -25z"/>
<path d="M2425 3655 c-50 -49 -15 -135 55 -135 41 0 80 39 80 80 0 41 -39 80
-80 80 -19 0 -40 -9 -55 -25z"/>
<path d="M3467 3262 c-35 -112 -101 -243 -174 -345 -69 -96 -214 -244 -301
-307 l-63 -45 557 -5 556 -5 19 -24 c26 -32 24 -77 -6 -106 l-24 -25 -698 0
-698 0 -79 -30 c-192 -74 -412 -117 -645 -127 l-154 -6 6 -116 c14 -269 119
-495 326 -701 232 -230 513 -368 891 -437 69 -12 150 -17 300 -17 220 0 306
10 490 60 131 36 136 37 164 30 15 -4 120 -116 282 -302 l259 -296 5 484 5
483 67 82 c176 215 257 447 245 693 -27 523 -478 976 -1108 1113 -63 14 -132
28 -154 31 l-41 6 -27 -88z m-52 -1047 c16 -15 25 -36 25 -55 0 -19 -9 -40
-25 -55 l-24 -25 -431 0 -431 0 -24 25 c-16 15 -25 36 -25 55 0 19 9 40 25 55
l24 25 431 0 431 0 24 -25z m640 0 c16 -15 25 -36 25 -55 0 -19 -9 -40 -25
-55 -24 -25 -26 -25 -215 -25 -189 0 -191 0 -215 25 -16 15 -25 36 -25 55 0
19 9 40 25 55 24 25 26 25 215 25 189 0 191 0 215 -25z m-1136 -305 c31 -16
46 -65 31 -100 -7 -17 -21 -35 -31 -40 -10 -6 -101 -10 -204 -10 -184 0 -186
0 -210 25 -16 15 -25 36 -25 55 0 19 9 40 25 55 24 25 26 25 210 25 103 0 194
-4 204 -10z m1136 -15 c16 -15 25 -36 25 -55 0 -19 -9 -40 -25 -55 l-24 -25
-431 0 -431 0 -24 25 c-16 15 -25 36 -25 55 0 19 9 40 25 55 l24 25 431 0 431
0 24 -25z"/>
</g>
</svg>
