<?xml version="1.0" encoding="iso-8859-1"?>
<!-- Generator: Adobe Illustrator 16.0.0, SVG Export Plug-In . SVG Version: 6.00 Build 0)  -->
<!DOCTYPE svg PUBLIC "-//W3C//DTD SVG 1.1//EN" "http://www.w3.org/Graphics/SVG/1.1/DTD/svg11.dtd">
<svg version="1.1" id="Capa_1" xmlns="http://www.w3.org/2000/svg" xmlns:xlink="http://www.w3.org/1999/xlink" x="0px" y="0px"
	 width="56.374px" height="56.374px" viewBox="0 0 56.374 56.374" style="enable-background:new 0 0 56.374 56.374;"
	 xml:space="preserve">
<g>
	<path d="M13.687,50.25H6.428c-1.657,0-3-1.343-3-3V21c0-1.657,1.343-3,3-3h7.259c1.657,0,3,1.343,3,3v26.25
		C16.687,48.907,15.344,50.25,13.687,50.25z"/>
	<path d="M32.187,50.25h-7.259c-1.657,0-3-1.343-3-3V3c0-1.657,1.343-3,3-3h7.259c1.657,0,3,1.343,3,3v44.25
		C35.187,48.907,33.844,50.25,32.187,50.25z"/>
	<path d="M50.854,50.25h-7.259c-1.657,0-3-1.343-3-3V13c0-1.657,1.343-3,3-3h7.259c1.657,0,3,1.343,3,3v34.25
		C53.854,48.907,52.511,50.25,50.854,50.25z"/>
	<g>
		<path d="M52.945,56.374H3.428c-0.829,0-1.5-0.671-1.5-1.5s0.671-1.5,1.5-1.5h49.519c0.829,0,1.5,0.671,1.5,1.5
			C54.445,55.703,53.774,56.374,52.945,56.374z"/>
	</g>
</g>
<g>
</g>
<g>
</g>
<g>
</g>
<g>
</g>
<g>
</g>
<g>
</g>
<g>
</g>
<g>
</g>
<g>
</g>
<g>
</g>
<g>
</g>
<g>
</g>
<g>
</g>
<g>
</g>
<g>
</g>
</svg>
