<svg width="26" height="26" viewBox="0 0 106.048 106.048" fill="none" xmlns="http://www.w3.org/2000/svg">
	<path fill="white" d="M84.838,0H21.209C9.543,0,0,9.543,0,21.209v63.629c0,11.666,9.543,21.21,21.209,21.21h63.628
		c11.667,0,21.21-9.544,21.21-21.21V21.209C106.048,9.543,96.505,0,84.838,0z M15.086,16.539c0-1.815,1.463-3.283,3.28-3.283h69.32
		c1.817,0,3.282,1.468,3.282,3.283v48.281c0,1.812-1.465,3.278-3.282,3.278h-69.32c-1.817,0-3.28-1.466-3.28-3.278V16.539z
		 M86.821,92.792L19.281,92.75c-4.143,0-6.657-3.283-5.58-7.28l1.543-5.654c1.077-4.019,5.362-7.28,9.502-7.28H81.1
		c4.147,0,8.461,3.262,9.59,7.249l1.637,5.769C93.449,89.54,90.969,92.802,86.821,92.792z M84.408,61.537H21.645V19.819h62.764
		V61.537z"/>
</svg>