<svg width="26" height="26" viewBox="0 0 512 512" fill="none" xmlns="http://www.w3.org/2000/svg">
	<path fill="white" d="M11.031,388.379L0,377.879v-21.688c23.641,18.156,51.688,27.812,80,27.812s56.344-9.656,80-27.812v21.688l-11.031,10.5
		C110.281,425.191,49.719,425.191,11.031,388.379z M0,313.879V0.004c44.813,42.656,115.188,42.656,160,0v313.875l-11.031,10.5
		c-38.688,36.812-99.25,36.812-137.938,0L0,313.879z M32,128.004h96v-32H32V128.004z M80,448.004c-28.313,0-56.359-9.656-80-27.812
		v59.812c44.797,42.656,115.203,42.656,160,0v-59.812C136.344,438.347,108.313,448.004,80,448.004z M324.969,388.379l11.031-10.5
		v-21.688c-23.656,18.156-51.688,27.812-80,27.812c-28.312,0-56.359-9.656-80-27.812v21.688l11.031,10.5
		C225.719,425.191,286.281,425.191,324.969,388.379z M176,313.879V0.004c44.813,42.656,115.188,42.656,160,0v313.875l-11.031,10.5
		c-38.688,36.812-99.25,36.812-137.938,0L176,313.879z M208,128.004h96v-32h-96V128.004z M256,448.004
		c-28.313,0-56.359-9.656-80-27.812v59.812c44.797,42.656,115.188,42.656,160,0v-59.812
		C312.344,438.347,284.312,448.004,256,448.004z M500.969,388.379l11.031-10.5v-21.688c-23.656,18.156-51.688,27.812-80,27.812
		s-56.375-9.656-80-27.812v21.688l11.031,10.5C401.719,425.191,462.281,425.191,500.969,388.379z M352,313.879V0.004
		c44.812,42.656,115.188,42.656,160,0v313.875l-11.031,10.5c-38.688,36.812-99.25,36.812-137.938,0L352,313.879z M384,128.004h96
		v-32h-96V128.004z M432,448.004c-28.312,0-56.375-9.656-80-27.812v59.812c44.812,42.656,115.188,42.656,160,0v-59.812
		C488.344,438.347,460.312,448.004,432,448.004z"/>
</svg>