<svg enable-background="new 0 0 32 32" id="Layer_3" version="1.1" viewBox="0 0 32 32" xml:space="preserve" xmlns="http://www.w3.org/2000/svg" xmlns:xlink="http://www.w3.org/1999/xlink">
	<g>
		<path fill="white" d="M29,4h-6c-0.022,0-0.04,0.011-0.061,0.012c-0.651-1.124-1.367-1.743-1.419-1.786C21.341,2.08,21.117,2,20.886,2h-9.773   c-0.231,0-0.455,0.08-0.633,0.227c-0.052,0.043-0.769,0.662-1.419,1.786C9.04,4.011,9.022,4,9,4H3C2.715,4,2.444,4.121,2.255,4.333   c-0.19,0.212-0.28,0.495-0.249,0.777c0.34,3.061,2.567,8.938,8.514,9.775c0.648,0.924,1.413,1.858,2.311,2.803   c0.048,0.051,0.112,0.078,0.168,0.117V20h-2c-0.552,0-1,0.447-1,1v3H8c-0.552,0-1,0.447-1,1v4c0,0.553,0.448,1,1,1h16   c0.552,0,1-0.447,1-1v-4c0-0.553-0.448-1-1-1h-2v-3c0-0.553-0.448-1-1-1h-2v-2.194c0.057-0.039,0.12-0.067,0.168-0.117   c0.897-0.944,1.662-1.879,2.311-2.803c5.947-0.837,8.175-6.714,8.514-9.775c0.032-0.282-0.059-0.565-0.249-0.777   C29.556,4.121,29.285,4,29,4z M4.203,6h4.056C8.143,6.453,8.049,6.931,8.016,7.463c-0.101,1.611,0.258,3.279,1.068,4.994   C5.853,11.149,4.629,7.774,4.203,6z M23,28H9v-2h2h10h2V28z M20,24h-8v-2h2h4h2V24z M15,20v-2h2v2H15z M18.01,16H18h-4h-0.01   c-2.783-3.019-4.122-5.833-3.98-8.369C10.117,5.707,11.065,4.479,11.514,4h8.971c0.452,0.482,1.398,1.709,1.505,3.632   C22.131,10.167,20.792,12.981,18.01,16z M22.92,12.449c0.808-1.712,1.165-3.378,1.064-4.987C23.951,6.931,23.857,6.453,23.742,6   h4.047C27.352,7.765,26.111,11.136,22.92,12.449z"/>
	</g>
</svg>
